<mxfile host="app.diagrams.net" modified="2023-11-27T18:57:06.833Z" agent="Mozilla/5.0 (Windows NT 10.0; Win64; x64) AppleWebKit/537.36 (KHTML, like Gecko) Chrome/119.0.0.0 Safari/537.36 Edg/119.0.0.0" etag="rGINOkQZOALGV13MnpwM" version="22.1.4" type="github">
  <diagram name="Page-1" id="U_SESXzfFQB2vHG1DU4S">
    <mxGraphModel dx="586" dy="241" grid="1" gridSize="10" guides="1" tooltips="1" connect="1" arrows="1" fold="1" page="1" pageScale="1" pageWidth="850" pageHeight="1100" math="0" shadow="0">
      <root>
        <mxCell id="0" />
        <mxCell id="1" parent="0" />
        <mxCell id="hWLnE5OVrduVImJzYpAH-1" value="AdministratorWeb" style="shape=umlActor;verticalLabelPosition=bottom;verticalAlign=top;html=1;outlineConnect=0;" vertex="1" parent="1">
          <mxGeometry x="210" y="85" width="30" height="60" as="geometry" />
        </mxCell>
        <mxCell id="hWLnE5OVrduVImJzYpAH-2" value="" style="endArrow=none;html=1;strokeWidth=2;rounded=0;exitX=0;exitY=0.5;exitDx=0;exitDy=0;entryX=1;entryY=0.5;entryDx=0;entryDy=0;" edge="1" parent="1">
          <mxGeometry width="50" height="50" relative="1" as="geometry">
            <mxPoint x="570" y="120" as="sourcePoint" />
            <mxPoint x="420" y="120" as="targetPoint" />
          </mxGeometry>
        </mxCell>
        <mxCell id="hWLnE5OVrduVImJzYpAH-3" value="AdminUI" style="text;html=1;strokeColor=none;fillColor=none;align=center;verticalAlign=middle;whiteSpace=wrap;rounded=0;" vertex="1" parent="1">
          <mxGeometry x="342.5" y="170" width="60" height="30" as="geometry" />
        </mxCell>
        <mxCell id="hWLnE5OVrduVImJzYpAH-4" value="" style="endArrow=classic;html=1;rounded=0;entryX=0;entryY=0;entryDx=0;entryDy=0;" edge="1" parent="1">
          <mxGeometry width="50" height="50" relative="1" as="geometry">
            <mxPoint x="629.0599734300413" y="155.16699323007606" as="sourcePoint" />
            <mxPoint x="681.7157287525379" y="251.71572875253787" as="targetPoint" />
          </mxGeometry>
        </mxCell>
        <mxCell id="hWLnE5OVrduVImJzYpAH-5" value="DBorangC" style="text;html=1;strokeColor=none;fillColor=none;align=center;verticalAlign=middle;whiteSpace=wrap;rounded=0;" vertex="1" parent="1">
          <mxGeometry x="560" y="190" width="60" height="30" as="geometry" />
        </mxCell>
        <mxCell id="hWLnE5OVrduVImJzYpAH-6" value="(From Use Case View)" style="text;html=1;strokeColor=none;fillColor=none;align=center;verticalAlign=middle;whiteSpace=wrap;rounded=0;" vertex="1" parent="1">
          <mxGeometry x="315" y="200" width="135" height="30" as="geometry" />
        </mxCell>
        <mxCell id="hWLnE5OVrduVImJzYpAH-7" value="Dosen" style="text;html=1;strokeColor=none;fillColor=none;align=center;verticalAlign=middle;whiteSpace=wrap;rounded=0;" vertex="1" parent="1">
          <mxGeometry x="660" y="330" width="60" height="30" as="geometry" />
        </mxCell>
        <mxCell id="hWLnE5OVrduVImJzYpAH-8" value="2.1.1:addDosen($Dosen.$user)" style="text;html=1;strokeColor=none;fillColor=none;align=center;verticalAlign=middle;whiteSpace=wrap;rounded=0;" vertex="1" parent="1">
          <mxGeometry x="500" y="240" width="135" height="30" as="geometry" />
        </mxCell>
        <mxCell id="hWLnE5OVrduVImJzYpAH-9" value="" style="endArrow=classic;html=1;rounded=0;" edge="1" parent="1">
          <mxGeometry width="50" height="50" relative="1" as="geometry">
            <mxPoint x="452.5" y="90" as="sourcePoint" />
            <mxPoint x="552.5" y="90" as="targetPoint" />
          </mxGeometry>
        </mxCell>
        <mxCell id="hWLnE5OVrduVImJzYpAH-10" value="2.1:addProses" style="text;html=1;strokeColor=none;fillColor=none;align=center;verticalAlign=middle;whiteSpace=wrap;rounded=0;" vertex="1" parent="1">
          <mxGeometry x="435" y="60" width="135" height="30" as="geometry" />
        </mxCell>
        <mxCell id="hWLnE5OVrduVImJzYpAH-11" value="1:index" style="text;html=1;strokeColor=none;fillColor=none;align=center;verticalAlign=middle;whiteSpace=wrap;rounded=0;" vertex="1" parent="1">
          <mxGeometry x="420" y="140" width="135" height="30" as="geometry" />
        </mxCell>
        <mxCell id="hWLnE5OVrduVImJzYpAH-12" value="" style="endArrow=classic;html=1;rounded=0;" edge="1" parent="1">
          <mxGeometry width="50" height="50" relative="1" as="geometry">
            <mxPoint x="530" y="140" as="sourcePoint" />
            <mxPoint x="447.5" y="140" as="targetPoint" />
          </mxGeometry>
        </mxCell>
        <mxCell id="hWLnE5OVrduVImJzYpAH-13" value="(From Actors)" style="text;html=1;strokeColor=none;fillColor=none;align=center;verticalAlign=middle;whiteSpace=wrap;rounded=0;" vertex="1" parent="1">
          <mxGeometry x="157.5" y="170" width="135" height="30" as="geometry" />
        </mxCell>
        <mxCell id="hWLnE5OVrduVImJzYpAH-14" value="" style="ellipse;shape=umlControl;whiteSpace=wrap;html=1;" vertex="1" parent="1">
          <mxGeometry x="570" y="80" width="70" height="80" as="geometry" />
        </mxCell>
        <mxCell id="hWLnE5OVrduVImJzYpAH-15" value="" style="ellipse;shape=umlEntity;whiteSpace=wrap;html=1;" vertex="1" parent="1">
          <mxGeometry x="650" y="240" width="80" height="80" as="geometry" />
        </mxCell>
        <mxCell id="hWLnE5OVrduVImJzYpAH-16" value="" style="shape=umlBoundary;whiteSpace=wrap;html=1;" vertex="1" parent="1">
          <mxGeometry x="315" y="70" width="110" height="90" as="geometry" />
        </mxCell>
        <mxCell id="hWLnE5OVrduVImJzYpAH-17" value="" style="endArrow=block;endFill=1;html=1;edgeStyle=orthogonalEdgeStyle;align=left;verticalAlign=top;rounded=0;exitX=0.5;exitY=0.5;exitDx=0;exitDy=0;exitPerimeter=0;" edge="1" parent="1" source="hWLnE5OVrduVImJzYpAH-1">
          <mxGeometry x="-1" relative="1" as="geometry">
            <mxPoint x="222.5" y="114.5" as="sourcePoint" />
            <mxPoint x="315" y="114.5" as="targetPoint" />
            <Array as="points">
              <mxPoint x="315" y="115" />
            </Array>
          </mxGeometry>
        </mxCell>
        <mxCell id="hWLnE5OVrduVImJzYpAH-18" value="2:addItem()" style="text;html=1;strokeColor=none;fillColor=none;align=center;verticalAlign=middle;whiteSpace=wrap;rounded=0;" vertex="1" parent="1">
          <mxGeometry x="220" y="50" width="135" height="30" as="geometry" />
        </mxCell>
      </root>
    </mxGraphModel>
  </diagram>
</mxfile>
